<svg width="512" height="317" viewBox="0 0 512 317" fill="none" xmlns="http://www.w3.org/2000/svg">
<g id="logo">
<g id="rectangles">
<rect id="Rectangle 1" x="362.825" y="232.774" width="8.60637" height="9.13937" stroke="black" stroke-width="0.454545"/>
<rect id="Rectangle 2" x="362.825" y="223.713" width="8.60637" height="8.60637" stroke="black" stroke-width="0.454545"/>
<rect id="Rectangle 3" x="371.885" y="223.713" width="18.2002" height="18.2002" stroke="black" stroke-width="0.454545"/>
<rect id="Rectangle 4" x="362.825" y="195.998" width="27.2612" height="27.2612" stroke="black" stroke-width="0.454545"/>
<rect id="Rectangle 5" x="316.455" y="195.998" width="45.916" height="45.916" stroke="black" stroke-width="0.454545"/>
<rect id="Rectangle 6" x="316.455" y="242.368" width="73.6316" height="73.6316" stroke="black" stroke-width="0.454545"/>
<rect id="Rectangle 7" x="390.542" y="195.998" width="120.002" height="120.002" stroke="black" stroke-width="0.454545"/>
<rect id="Rectangle 8" x="316.455" y="1.45454" width="194.089" height="194.089" stroke="black" stroke-width="0.454545"/>
<rect id="Rectangle 9" x="1.45506" y="1.45548" width="314.545" height="314.545" stroke="black" stroke-width="0.454545"/>
</g>
<path id="blaker" d="M91.168 299.696C88.6314 299.696 86.5984 299.024 85.0689 297.681C83.5395 296.301 82.7748 294.436 82.7748 292.086L83.782 293.261H82.7748V299.136H77.7389V258.289H82.7748V267.242L82.6629 274.236H83.782L82.7748 275.412C82.7748 273.099 83.5395 271.252 85.0689 269.872C86.6357 268.492 88.6687 267.802 91.168 267.802C94.2641 267.802 96.7448 268.828 98.6099 270.879C100.475 272.931 101.408 275.729 101.408 279.272V288.281C101.408 291.788 100.475 294.567 98.6099 296.618C96.7448 298.67 94.2641 299.696 91.168 299.696ZM89.4893 295.331C91.6156 295.331 93.2943 294.697 94.5253 293.429C95.7563 292.161 96.3718 290.333 96.3718 287.945V279.552C96.3718 277.165 95.7563 275.337 94.5253 274.069C93.2943 272.8 91.6156 272.166 89.4893 272.166C87.4377 272.166 85.7963 272.819 84.5653 274.125C83.3716 275.43 82.7748 277.239 82.7748 279.552V287.945C82.7748 290.258 83.3716 292.067 84.5653 293.373C85.7963 294.679 87.4377 295.331 89.4893 295.331ZM127.125 299.136C125.334 299.136 123.768 298.782 122.425 298.073C121.082 297.364 120.037 296.357 119.291 295.052C118.545 293.746 118.172 292.217 118.172 290.463V262.878H107.821V258.289H123.208V290.463C123.208 291.732 123.562 292.739 124.271 293.485C124.98 294.194 125.931 294.548 127.125 294.548H136.917V299.136H127.125ZM153.793 299.696C150.548 299.696 147.993 298.875 146.128 297.234C144.262 295.555 143.33 293.298 143.33 290.463C143.33 287.591 144.262 285.334 146.128 283.693C147.993 282.051 150.511 281.231 153.681 281.231H163.194V278.153C163.194 276.251 162.616 274.796 161.459 273.789C160.34 272.744 158.736 272.222 156.647 272.222C154.819 272.222 153.29 272.614 152.059 273.397C150.828 274.143 150.119 275.169 149.933 276.475H144.897C145.232 273.826 146.482 271.719 148.646 270.152C150.809 268.585 153.514 267.802 156.759 267.802C160.303 267.802 163.101 268.716 165.152 270.543C167.204 272.371 168.23 274.852 168.23 277.985V299.136H163.306V293.261H162.466L163.306 292.422C163.306 294.66 162.429 296.432 160.676 297.737C158.96 299.043 156.666 299.696 153.793 299.696ZM155.024 295.723C157.412 295.723 159.37 295.126 160.9 293.932C162.429 292.739 163.194 291.209 163.194 289.344V284.98H153.793C152.115 284.98 150.791 285.446 149.821 286.379C148.851 287.311 148.366 288.58 148.366 290.184C148.366 291.899 148.944 293.261 150.1 294.268C151.294 295.238 152.935 295.723 155.024 295.723ZM178.559 299.136V258.289H183.595V281.063H189.527L198.479 268.361H204.243L193.891 283.021L204.41 299.136H198.535L189.582 285.427H183.595V299.136H178.559ZM223.581 299.696C221.156 299.696 219.03 299.211 217.202 298.241C215.412 297.271 214.013 295.91 213.006 294.156C212.036 292.366 211.551 290.295 211.551 287.945V279.552C211.551 277.165 212.036 275.094 213.006 273.341C214.013 271.588 215.412 270.226 217.202 269.257C219.03 268.287 221.156 267.802 223.581 267.802C226.006 267.802 228.113 268.287 229.904 269.257C231.732 270.226 233.131 271.588 234.1 273.341C235.108 275.094 235.611 277.165 235.611 279.552V284.98H216.475V287.945C216.475 290.37 217.09 292.235 218.321 293.541C219.552 294.809 221.306 295.443 223.581 295.443C225.521 295.443 227.087 295.108 228.281 294.436C229.475 293.727 230.202 292.683 230.463 291.303H235.499C235.164 293.877 233.895 295.928 231.694 297.458C229.531 298.95 226.826 299.696 223.581 299.696ZM230.687 281.622V279.552C230.687 277.127 230.072 275.262 228.841 273.957C227.647 272.651 225.894 271.998 223.581 271.998C221.306 271.998 219.552 272.651 218.321 273.957C217.09 275.262 216.475 277.127 216.475 279.552V281.175H231.079L230.687 281.622ZM246.556 299.136V268.361H251.48V274.236H252.656L251.033 277.874C251.033 274.554 251.742 272.054 253.159 270.376C254.614 268.66 256.759 267.802 259.594 267.802C262.839 267.802 265.413 268.828 267.316 270.879C269.255 272.894 270.225 275.635 270.225 279.105V280.951H265.189V279.552C265.189 277.127 264.593 275.281 263.399 274.013C262.242 272.707 260.582 272.054 258.419 272.054C256.293 272.054 254.614 272.707 253.383 274.013C252.189 275.318 251.592 277.165 251.592 279.552V299.136H246.556Z" fill="black"/>
<path id="golden_spiral" d="M316.227 1.45447L316.837 1.14955L316.649 0.77265L316.227 0.77265V1.45447ZM1.45477 316.227V316.909H2.13659L2.13659 316.227H1.45477ZM316.227 1.45453L315.618 1.75945L315.806 2.13635H316.227V1.45453ZM510.545 195.254L511.227 195.256V195.252L510.545 195.254ZM316.455 242.136H317.136H316.455ZM362.591 196V195.318V196ZM389.636 223.045H388.955V223.727H389.636V223.045ZM390.091 223.045V223.727H390.773V223.045H390.091ZM362.591 195.545V194.864V195.545ZM316 242.136H316.682H316ZM389.864 316V316.682V316ZM510.997 195.773V195.091H510.32L510.315 195.768L510.997 195.773ZM511 195.773V196.454H511.682V195.773H511ZM510.999 195.254L510.318 195.252V195.256L510.999 195.254ZM511 194.864H511.682V194.182H511V194.864ZM510.998 194.864L510.316 194.867L510.319 195.545H510.998V194.864ZM316.227 0.999939V0.318121V0.999939ZM1.00024 316.227H0.318426L0.318426 316.909H1.00024V316.227ZM371.909 223.727V224.409H372.591V223.727H371.909ZM371.909 242.364V243.045H372.591V242.364H371.909ZM371.909 223.273H372.591V222.591H371.909V223.273ZM371.909 241.454V240.773H371.227L371.227 241.454L371.909 241.454ZM389.636 223.727V223.045H388.955V223.727H389.636ZM390.091 223.727H390.773V223.045H390.091V223.727ZM316.227 0.77265C142.007 0.772665 0.77294 142.006 0.772955 316.227H2.13659C2.13658 142.76 142.76 2.1363 316.227 2.13629V0.77265ZM316.837 1.14961L316.837 1.14955L315.617 1.75939L315.618 1.75945L316.837 1.14961ZM511.227 195.252C510.946 87.7958 423.749 0.772712 316.227 0.772711V2.13635C422.997 2.13635 509.584 88.5509 509.863 195.255L511.227 195.252ZM389.864 316.227C456.76 316.227 511.015 262.103 511.227 195.256L509.863 195.252C509.654 261.347 456.008 314.863 389.864 314.863V316.227ZM315.773 242.136C315.773 283.056 348.944 316.227 389.864 316.227V314.863C349.697 314.863 317.136 282.302 317.136 242.136H315.773ZM362.591 195.318C336.734 195.318 315.773 216.279 315.773 242.136H317.136C317.136 217.032 337.487 196.682 362.591 196.682V195.318ZM390.318 223.045C390.318 207.732 377.904 195.318 362.591 195.318V196.682C377.151 196.682 388.955 208.485 388.955 223.045H390.318ZM390.091 222.364H389.636V223.727H390.091V222.364ZM362.591 196.227C377.402 196.227 389.409 208.234 389.409 223.045H390.773C390.773 207.481 378.155 194.864 362.591 194.864V196.227ZM316.682 242.136C316.682 216.781 337.236 196.227 362.591 196.227V194.864C336.483 194.864 315.318 216.028 315.318 242.136H316.682ZM389.864 315.318C349.446 315.318 316.682 282.553 316.682 242.136H315.318C315.318 283.307 348.693 316.682 389.864 316.682V315.318ZM510.315 195.768C509.829 261.877 456.087 315.318 389.864 315.318V316.682C456.837 316.682 511.187 262.635 511.678 195.778L510.315 195.768ZM511 195.091H510.997V196.454H511V195.091ZM510.318 195.256C510.318 195.428 510.318 195.6 510.318 195.773H511.682C511.682 195.599 511.682 195.426 511.681 195.252L510.318 195.256ZM510.318 194.864C510.318 194.993 510.318 195.122 510.318 195.252L511.681 195.256C511.682 195.125 511.682 194.994 511.682 194.864H510.318ZM510.998 195.545H511V194.182H510.998V195.545ZM316.227 1.68176C423.119 1.68179 509.828 88.0901 510.316 194.867L511.68 194.86C511.188 87.3335 423.87 0.318153 316.227 0.318121V1.68176ZM1.68206 316.227C1.68205 142.509 142.509 1.68177 316.227 1.68176V0.318121C141.756 0.318136 0.318411 141.755 0.318426 316.227H1.68206ZM1.45477 315.545H1.00024V316.909H1.45477V315.545ZM363.5 232.818C363.5 228.174 367.265 224.409 371.909 224.409V223.045C366.512 223.045 362.136 227.421 362.136 232.818H363.5ZM371.909 241.227C367.265 241.227 363.5 237.462 363.5 232.818H362.136C362.136 238.215 366.512 242.591 371.909 242.591V241.227ZM372.591 242.364V241.909H371.227V242.364H372.591ZM361.682 232.818C361.682 238.466 366.261 243.045 371.909 243.045V241.682C367.014 241.682 363.046 237.713 363.046 232.818H361.682ZM371.909 222.591C366.261 222.591 361.682 227.17 361.682 232.818H363.046C363.046 227.923 367.014 223.954 371.909 223.954V222.591ZM372.591 223.727V223.273H371.227V223.727H372.591ZM371.227 241.454L371.227 241.909L372.591 241.909L372.591 241.454L371.227 241.454ZM388.955 223.727C388.955 233.141 381.323 240.773 371.909 240.773V242.136C382.076 242.136 390.318 233.894 390.318 223.727H388.955ZM390.091 223.045H389.636V224.409H390.091V223.045ZM371.909 242.591C382.327 242.591 390.773 234.145 390.773 223.727H389.409C389.409 233.392 381.574 241.227 371.909 241.227V242.591Z" fill="black"/>
</g>
</svg>
